<svg xmlns="http://www.w3.org/2000/svg" viewBox="0 0 1600 2000" fill="none">
  <defs>
    <linearGradient id="bg" x1="0" y1="0" x2="1600" y2="2000" gradientUnits="userSpaceOnUse">
      <stop offset="0" stop-color="#090c16" />
      <stop offset="0.46" stop-color="#18131b" />
      <stop offset="1" stop-color="#c38a58" />
    </linearGradient>
    <radialGradient id="lightA" cx="0" cy="0" r="1" gradientUnits="userSpaceOnUse" gradientTransform="translate(380 600) rotate(22) scale(420 540)">
      <stop offset="0" stop-color="#fff4e6" stop-opacity="0.58" />
      <stop offset="0.5" stop-color="#cf9061" stop-opacity="0.18" />
      <stop offset="1" stop-color="#090c16" stop-opacity="0" />
    </radialGradient>
    <radialGradient id="lightB" cx="0" cy="0" r="1" gradientUnits="userSpaceOnUse" gradientTransform="translate(1220 1220) rotate(-18) scale(520 660)">
      <stop offset="0" stop-color="#45639f" stop-opacity="0.55" />
      <stop offset="0.56" stop-color="#203055" stop-opacity="0.2" />
      <stop offset="1" stop-color="#090c16" stop-opacity="0" />
    </radialGradient>
    <linearGradient id="stack" x1="460" y1="720" x2="1180" y2="1440" gradientUnits="userSpaceOnUse">
      <stop offset="0" stop-color="#efe6da" stop-opacity="0.96" />
      <stop offset="0.26" stop-color="#d9b993" stop-opacity="0.92" />
      <stop offset="0.6" stop-color="#54404f" stop-opacity="0.96" />
      <stop offset="1" stop-color="#0b1020" stop-opacity="0.98" />
    </linearGradient>
    <linearGradient id="tag" x1="1060" y1="720" x2="1320" y2="1120" gradientUnits="userSpaceOnUse">
      <stop offset="0" stop-color="#f6f1e7" stop-opacity="0.95" />
      <stop offset="1" stop-color="#d8c2a3" stop-opacity="0.92" />
    </linearGradient>
    <filter id="grain" x="-20%" y="-20%" width="140%" height="140%">
      <feTurbulence type="fractalNoise" baseFrequency="0.86" numOctaves="2" seed="29" />
      <feColorMatrix values="0 0 0 0 0
                             0 0 0 0 0
                             0 0 0 0 0
                             0 0 0 .2 0" />
    </filter>
  </defs>

  <rect width="1600" height="2000" fill="url(#bg)" />
  <ellipse cx="380" cy="600" rx="420" ry="540" fill="url(#lightA)" />
  <ellipse cx="1220" cy="1220" rx="520" ry="660" fill="url(#lightB)" />

  <path
    d="M250 640C440 560 610 550 770 612C930 674 1060 790 1220 840C1320 872 1400 868 1540 824V1174C1406 1214 1320 1250 1238 1314C1148 1386 1080 1486 944 1528C808 1570 626 1560 456 1512C286 1464 154 1372 60 1228C110 1098 148 928 250 640Z"
    fill="url(#stack)"
    opacity="0.95"
  />

  <path
    d="M446 812C582 742 722 734 868 784C1006 832 1112 934 1248 982C1338 1014 1414 1024 1500 1010"
    stroke="#f9f1e6"
    stroke-opacity="0.22"
    stroke-width="10"
    stroke-linecap="round"
  />
  <path
    d="M396 1028C534 962 686 948 844 996C996 1042 1110 1142 1268 1190C1360 1218 1438 1226 1500 1218"
    stroke="#d6b28b"
    stroke-opacity="0.24"
    stroke-width="8"
    stroke-linecap="round"
  />
  <path
    d="M420 1236C564 1184 710 1180 858 1228C1012 1278 1108 1370 1260 1414C1350 1440 1416 1446 1490 1438"
    stroke="#223058"
    stroke-opacity="0.28"
    stroke-width="6"
    stroke-linecap="round"
  />

  <path
    d="M1008 660C1104 690 1174 760 1224 858C1178 860 1130 874 1088 902C1048 928 1016 968 992 1020C950 942 916 878 876 828C840 782 798 742 754 710C822 692 900 678 1008 660Z"
    fill="url(#tag)"
    opacity="0.98"
  />
  <path
    d="M1050 736C1104 758 1140 802 1160 858"
    stroke="#8c5d32"
    stroke-opacity="0.35"
    stroke-width="4"
    stroke-linecap="round"
  />
  <path
    d="M1100 760C1148 786 1172 832 1188 886"
    stroke="#0c1325"
    stroke-opacity="0.24"
    stroke-width="3"
    stroke-linecap="round"
  />
  <rect x="1014" y="850" width="170" height="210" rx="26" fill="#0b1120" fill-opacity="0.82" />
  <path
    d="M1040 894H1158"
    stroke="#f6e6d2"
    stroke-opacity="0.48"
    stroke-width="9"
    stroke-linecap="round"
  />
  <path
    d="M1040 934H1128"
    stroke="#f6e6d2"
    stroke-opacity="0.24"
    stroke-width="7"
    stroke-linecap="round"
  />
  <path
    d="M1040 974H1108"
    stroke="#f6e6d2"
    stroke-opacity="0.18"
    stroke-width="7"
    stroke-linecap="round"
  />

  <rect width="1600" height="2000" fill="url(#grain)" opacity="0.28" />
</svg>
